<svg width="118" height="32" viewBox="0 0 118 32" fill="none" xmlns="http://www.w3.org/2000/svg">
<g clip-path="url(#clip0_45_762)">
<path d="M31.2793 15.595C31.2763 12.2926 30.2212 9.0765 28.2664 6.41075C26.3115 3.745 23.5579 1.76741 20.4028 0.7633C17.2477 -0.240814 13.8543 -0.219535 10.7121 0.824067C7.56999 1.86767 4.84154 3.87963 2.92044 6.56969C0.99935 9.25974 -0.0150593 12.4888 0.0235704 15.791C0.0622002 19.0932 1.15187 22.2978 3.13537 24.9424C5.11887 27.587 7.89365 29.535 11.0594 30.5052C14.2251 31.4754 17.6181 31.4178 20.7488 30.3406C21.4733 30.0921 22.2602 30.0921 22.9847 30.3406L27.6237 31.94C27.7978 31.9997 27.9836 32.0171 28.1658 31.9907C28.348 31.9644 28.5212 31.8951 28.6711 31.7885C28.821 31.682 28.9432 31.5413 29.0276 31.3781C29.112 31.215 29.1561 31.0341 29.1563 30.8506V24.331C29.1579 23.7804 29.292 23.2384 29.5474 22.7503C30.6922 20.5383 31.2862 18.0841 31.2793 15.595Z" fill="#FF597B"/>
<path d="M15.6397 24.3235C10.5437 24.3235 7.60829 20.7608 7.07236 20.052C6.92275 19.8531 6.8585 19.6031 6.89377 19.3569C6.92903 19.1108 7.06092 18.8887 7.26041 18.7395C7.4599 18.5903 7.71065 18.5262 7.95751 18.5614C8.20437 18.5966 8.42711 18.7281 8.57672 18.927C8.84751 19.2889 11.3523 22.454 15.6491 22.454C19.9459 22.454 22.4507 19.2889 22.7215 18.927C22.8791 18.7534 23.0962 18.645 23.3299 18.623C23.5637 18.6009 23.7973 18.667 23.9847 18.808C24.1722 18.9491 24.2999 19.155 24.3428 19.3852C24.3856 19.6154 24.3406 19.8533 24.2164 20.052C23.6711 20.7664 20.7357 24.3235 15.6397 24.3235Z" fill="white"/>
<path d="M39.2619 12.3492H40.6572V11.7698C40.6519 11.2408 40.741 10.7151 40.9204 10.2173C41.0878 9.75442 41.3504 9.3316 41.6914 8.97598C42.0391 8.62013 42.4564 8.33931 42.9175 8.15095C43.435 7.94443 43.9885 7.84246 44.5459 7.85094H49.6438V23.5491H47.0601V10.4854H44.356C44.2061 10.4785 44.0564 10.5026 43.9163 10.5562C43.7762 10.6098 43.6487 10.6916 43.5418 10.7967C43.4308 10.9248 43.3466 11.0737 43.2939 11.2347C43.2413 11.3957 43.2214 11.5655 43.2353 11.7342V12.3549H46.4696V14.9612H43.2353V23.5491H40.6572V14.9612H39.2619V12.3492Z" fill="#FF597B"/>
<path d="M51.733 9.26474C51.7332 8.88898 51.8748 8.52698 52.1298 8.25033C52.2565 8.11903 52.4096 8.01592 52.5791 7.94774C52.7486 7.87956 52.9306 7.84785 53.1133 7.85469C53.2964 7.84849 53.4788 7.88048 53.6488 7.94861C53.8187 8.01674 53.9726 8.1195 54.1005 8.25033C54.356 8.52677 54.4912 8.89286 54.4766 9.26849C54.4846 9.45288 54.4554 9.63699 54.3908 9.80994C54.3262 9.9829 54.2275 10.1412 54.1005 10.2754C53.9713 10.402 53.8172 10.5007 53.648 10.5652C53.4788 10.6298 53.298 10.6588 53.117 10.6504C52.9323 10.6579 52.748 10.627 52.5759 10.5596C52.4039 10.4922 52.2477 10.3898 52.1175 10.2589C51.9873 10.128 51.8859 9.9715 51.8197 9.79937C51.7535 9.62724 51.724 9.44325 51.733 9.25912V9.26474Z" fill="#FF597B"/>
<path d="M54.4164 12.3492H51.8383V23.5509H54.4164V12.3492Z" fill="#FF597B"/>
<path d="M69.5408 12.3492H70.9361V11.7511C70.9309 11.2215 71.02 10.6952 71.1994 10.1967C71.3655 9.73597 71.6284 9.31597 71.9704 8.96473C72.3208 8.61497 72.7376 8.33832 73.1964 8.15095C73.714 7.94443 74.2675 7.84246 74.8249 7.85094H77.4876V10.4854H74.635C74.4851 10.4788 74.3355 10.503 74.1954 10.5565C74.0553 10.6101 73.9278 10.6918 73.8207 10.7967C73.7118 10.9209 73.6287 11.0653 73.576 11.2217C73.5234 11.3782 73.5024 11.5434 73.5142 11.708V12.3492H76.7486V14.9631H73.5142V23.5547H70.9361V14.9631H69.5408V12.3492Z" fill="#FF597B"/>
<path d="M79.8382 18.8407C79.9397 19.4585 80.2698 20.0158 80.7634 20.4027C81.3171 20.8299 82.0044 21.0484 82.704 21.0196C83.1933 21.0304 83.679 20.9324 84.1256 20.7327C84.5153 20.5545 84.8569 20.2865 85.1223 19.9508H87.8169C87.5373 21.0109 86.8938 21.9398 85.9985 22.5759C85.0972 23.2197 83.9965 23.5416 82.6965 23.5416C81.9411 23.5541 81.1902 23.4243 80.4832 23.159C79.8393 22.9112 79.2569 22.5274 78.7757 22.034C78.2892 21.528 77.915 20.9255 77.6776 20.2658C77.4115 19.5165 77.2809 18.7261 77.2921 17.9313C77.2806 17.1402 77.4111 16.3534 77.6776 15.6081C77.9223 14.9523 78.3015 14.3546 78.7908 13.853C79.2723 13.3602 79.8547 12.9764 80.4982 12.728C81.9285 12.2054 83.4983 12.2054 84.9286 12.728C85.5724 12.9812 86.1522 13.3731 86.6266 13.8755C87.1158 14.4028 87.4892 15.0261 87.7229 15.7056C87.9914 16.49 88.1224 17.3145 88.1103 18.1432V18.3082C88.1103 18.3907 88.1103 18.5689 88.0896 18.8426L79.8382 18.8407ZM85.4683 17.0932C85.3789 16.4509 85.0482 15.8665 84.5431 15.4581C84.0063 15.0763 83.3634 14.871 82.704 14.871C82.0446 14.871 81.4017 15.0763 80.8649 15.4581C80.3598 15.8665 80.0291 16.4509 79.9397 17.0932H85.4683Z" fill="#FF597B"/>
<path d="M92.6591 23.549L88.304 12.3417H91.0513L94.0318 19.7558L96.9916 12.3417H99.739L95.4139 23.549H92.6591Z" fill="#FF597B"/>
<path d="M102.62 18.8426C102.719 19.4616 103.05 20.0202 103.545 20.4064C104.101 20.8353 104.791 21.0539 105.493 21.0233C105.983 21.0341 106.469 20.9361 106.917 20.7364C107.306 20.5571 107.647 20.2893 107.913 19.9545H110.617C110.336 21.0145 109.692 21.943 108.797 22.5796C107.897 23.2247 106.796 23.5472 105.493 23.5472C104.737 23.5569 103.985 23.424 103.278 23.1553C102.634 22.9074 102.05 22.5237 101.569 22.0302C101.082 21.5247 100.708 20.922 100.472 20.262C100.205 19.5131 100.074 18.7225 100.085 17.9276C100.073 17.1356 100.204 16.348 100.472 15.6025C100.71 14.946 101.083 14.3467 101.569 13.8437C102.05 13.3502 102.634 12.9665 103.278 12.7186C104.709 12.1961 106.279 12.1961 107.71 12.7186C108.356 12.9733 108.937 13.3685 109.41 13.8755C109.9 14.4024 110.274 15.0258 110.508 15.7056C110.776 16.4901 110.906 17.3147 110.894 18.1432V18.3082C110.894 18.3907 110.894 18.5689 110.873 18.8426H102.62ZM108.252 17.095C108.162 16.4528 107.832 15.8684 107.327 15.46C106.789 15.0782 106.146 14.8731 105.487 14.8731C104.827 14.8731 104.184 15.0782 103.647 15.46C103.141 15.8679 102.81 16.4525 102.721 17.095H108.252Z" fill="#FF597B"/>
<path d="M66.6863 20.9183C66.5457 20.9234 66.4054 20.8996 66.2744 20.8483C66.1434 20.797 66.0244 20.7194 65.9248 20.6202C65.8277 20.5213 65.7515 20.4039 65.7008 20.275C65.6501 20.1462 65.6258 20.0085 65.6295 19.8701V14.9518H67.8278V12.3417H65.6276V8.08719L63.0495 9.45599V12.3417H56.5526V23.549H59.1514V14.9518H63.0514V19.827C63.0447 20.3411 63.1419 20.8513 63.3373 21.3271C63.5168 21.772 63.7882 22.1742 64.1339 22.5076C64.4796 22.841 64.8918 23.0981 65.3437 23.2622C65.8414 23.4451 66.3684 23.5359 66.8988 23.5303H69.0124V20.9183H66.6863Z" fill="#FF597B"/>
<path d="M118 12.3417H115.501H115.35H112.9V23.549H115.501V14.9518H118V12.3417Z" fill="#FF597B"/>
</g>
<defs>
<clipPath id="clip0_45_762">
<rect width="118" height="32" fill="white"/>
</clipPath>
</defs>
</svg>
